<svg xmlns="http://www.w3.org/2000/svg" viewBox="0 0 1200 900" role="img" aria-labelledby="title desc">
  <title id="title">Observability hub visual</title>
  <desc id="desc">Abstract monitoring dashboard with metrics, alerts, and signal waves.</desc>
  <defs>
    <radialGradient id="bg" cx="48%" cy="34%" r="72%">
      <stop offset="0" stop-color="#23334a"/>
      <stop offset="0.55" stop-color="#0e1320"/>
      <stop offset="1" stop-color="#06070d"/>
    </radialGradient>
    <linearGradient id="line" x1="0" x2="1" y1="0" y2="0">
      <stop offset="0" stop-color="#75f4d8"/>
      <stop offset="0.55" stop-color="#8da8ff"/>
      <stop offset="1" stop-color="#ff719d"/>
    </linearGradient>
    <filter id="glow" x="-50%" y="-50%" width="200%" height="200%">
      <feGaussianBlur stdDeviation="10" result="blur"/>
      <feMerge>
        <feMergeNode in="blur"/>
        <feMergeNode in="SourceGraphic"/>
      </feMerge>
    </filter>
  </defs>
  <rect width="1200" height="900" fill="url(#bg)"/>
  <g transform="translate(130 118)">
    <rect width="940" height="636" rx="28" fill="#0b101c" stroke="#ffffff" stroke-opacity="0.18" stroke-width="2"/>
    <rect x="34" y="34" width="872" height="78" rx="18" fill="#111a2c" stroke="#ffffff" stroke-opacity="0.1"/>
    <circle cx="76" cy="73" r="11" fill="#75f4d8"/>
    <circle cx="114" cy="73" r="11" fill="#f4bd6b"/>
    <circle cx="152" cy="73" r="11" fill="#ff719d"/>
    <g transform="translate(56 158)" fill="#101827" stroke="#ffffff" stroke-opacity="0.16">
      <rect width="252" height="176" rx="20"/>
      <rect x="304" width="252" height="176" rx="20"/>
      <rect x="608" width="252" height="176" rx="20"/>
      <rect y="226" width="860" height="200" rx="20"/>
    </g>
    <g transform="translate(88 202)" fill="none" stroke-linecap="round">
      <path d="M0 78c36-74 76-74 116-6 30 50 70 46 104-24" stroke="#75f4d8" stroke-width="10"/>
      <path d="M304 82h188M304 38h132M304 126h92" stroke="#8da8ff" stroke-width="12"/>
      <path d="M650 122a70 70 0 1 1 72-2" stroke="#f4bd6b" stroke-width="13"/>
      <path d="M688 78l42 42" stroke="#ff719d" stroke-width="13"/>
    </g>
    <path d="M88 530c72-88 132 86 210-3 68-76 128-64 192 12 76 92 142-106 222-26 54 54 88 30 134-54" fill="none" stroke="url(#line)" stroke-width="12" stroke-linecap="round" filter="url(#glow)"/>
    <g opacity="0.18" stroke="#ffffff" stroke-width="1">
      <path d="M88 458h812M88 514h812M88 570h812"/>
      <path d="M178 432v172M312 432v172M446 432v172M580 432v172M714 432v172M848 432v172"/>
    </g>
  </g>
</svg>
