<svg xmlns="http://www.w3.org/2000/svg" viewBox="0 0 1200 900" role="img" aria-labelledby="title desc">
  <title id="title">Hybrid network guardrails visual</title>
  <desc id="desc">Abstract secure hybrid network nodes connected across cloud and private infrastructure.</desc>
  <defs>
    <linearGradient id="bg" x1="0" x2="1" y1="0" y2="1">
      <stop offset="0" stop-color="#08131e"/>
      <stop offset="0.55" stop-color="#141326"/>
      <stop offset="1" stop-color="#07080f"/>
    </linearGradient>
    <linearGradient id="guard" x1="0" x2="1" y1="0" y2="1">
      <stop offset="0" stop-color="#75f4d8"/>
      <stop offset="1" stop-color="#8da8ff"/>
    </linearGradient>
    <filter id="glow" x="-50%" y="-50%" width="200%" height="200%">
      <feGaussianBlur stdDeviation="12" result="blur"/>
      <feMerge>
        <feMergeNode in="blur"/>
        <feMergeNode in="SourceGraphic"/>
      </feMerge>
    </filter>
  </defs>
  <rect width="1200" height="900" fill="url(#bg)"/>
  <g opacity="0.14" stroke="#ffffff" stroke-width="1">
    <path d="M0 150h1200M0 300h1200M0 450h1200M0 600h1200M0 750h1200"/>
    <path d="M150 0v900M300 0v900M450 0v900M600 0v900M750 0v900M900 0v900M1050 0v900"/>
  </g>
  <g stroke="#8da8ff" stroke-width="4" fill="none" opacity="0.46">
    <path d="M228 254 600 450 976 260"/>
    <path d="M228 650 600 450 976 660"/>
    <path d="M228 254v396M976 260v400"/>
    <path d="M346 450h508"/>
  </g>
  <g filter="url(#glow)">
    <circle cx="600" cy="450" r="98" fill="#101827" stroke="url(#guard)" stroke-width="6"/>
    <path d="M600 360c58 28 88 42 88 42v68c0 70-88 112-88 112s-88-42-88-112v-68s30-14 88-42z" fill="url(#guard)" opacity="0.9"/>
    <path d="M560 458l29 30 58-72" fill="none" stroke="#07110f" stroke-width="18" stroke-linecap="round" stroke-linejoin="round"/>
  </g>
  <g fill="#101827" stroke="#ffffff" stroke-opacity="0.18" stroke-width="2">
    <rect x="120" y="174" width="216" height="160" rx="24"/>
    <rect x="868" y="180" width="216" height="160" rx="24"/>
    <rect x="120" y="570" width="216" height="160" rx="24"/>
    <rect x="868" y="580" width="216" height="160" rx="24"/>
  </g>
  <g fill="none" stroke-linecap="round" stroke-linejoin="round">
    <path d="M176 278h104M176 230h104" stroke="#75f4d8" stroke-width="12"/>
    <path d="M924 242c26-40 78-40 104 0 28 0 50 18 50 42 0 27-22 44-54 44h-118c-32 0-52-17-52-42 0-23 20-42 48-44 5 0 14 0 22 0z" stroke="#8da8ff" stroke-width="11"/>
    <path d="M176 650h104M176 690h104" stroke="#f4bd6b" stroke-width="12"/>
    <path d="M946 644h60M922 686h108M950 728h52" stroke="#ff719d" stroke-width="12"/>
  </g>
  <g fill="#f4bd6b" filter="url(#glow)">
    <circle cx="228" cy="254" r="13"/>
    <circle cx="976" cy="260" r="13"/>
    <circle cx="228" cy="650" r="13"/>
    <circle cx="976" cy="660" r="13"/>
  </g>
</svg>
